<mxfile host="app.diagrams.net" modified="2021-10-08T11:51:03.904Z" agent="5.0 (Windows NT 10.0; Win64; x64) AppleWebKit/537.36 (KHTML, like Gecko) Chrome/94.0.4606.61 Safari/537.36" etag="CflqH2MfmonDFciBg1a4" version="14.9.8" type="github">
  <diagram id="2fcRntU-g-GpO7nDGW9s" name="Page-1">
    <mxGraphModel dx="1422" dy="706" grid="1" gridSize="10" guides="1" tooltips="1" connect="1" arrows="1" fold="1" page="1" pageScale="1" pageWidth="827" pageHeight="1169" math="0" shadow="0">
      <root>
        <mxCell id="0" />
        <mxCell id="1" parent="0" />
        <mxCell id="3DmKK-dXnjQOcCmPa_60-12" style="edgeStyle=orthogonalEdgeStyle;rounded=0;orthogonalLoop=1;jettySize=auto;html=1;" parent="1" source="3DmKK-dXnjQOcCmPa_60-3" target="3DmKK-dXnjQOcCmPa_60-7" edge="1">
          <mxGeometry relative="1" as="geometry" />
        </mxCell>
        <mxCell id="3DmKK-dXnjQOcCmPa_60-3" value="开始" style="strokeWidth=2;html=1;shape=mxgraph.flowchart.terminator;whiteSpace=wrap;strokeColor=#000000;shadow=0;" parent="1" vertex="1">
          <mxGeometry x="240" y="160" width="70" height="40" as="geometry" />
        </mxCell>
        <mxCell id="3DmKK-dXnjQOcCmPa_60-13" style="edgeStyle=orthogonalEdgeStyle;rounded=0;orthogonalLoop=1;jettySize=auto;html=1;entryX=0.5;entryY=0;entryDx=0;entryDy=0;entryPerimeter=0;" parent="1" source="3DmKK-dXnjQOcCmPa_60-7" target="3DmKK-dXnjQOcCmPa_60-8" edge="1">
          <mxGeometry relative="1" as="geometry" />
        </mxCell>
        <mxCell id="3DmKK-dXnjQOcCmPa_60-7" value="登录" style="rounded=1;whiteSpace=wrap;html=1;absoluteArcSize=1;arcSize=14;strokeWidth=2;shadow=0;" parent="1" vertex="1">
          <mxGeometry x="245" y="220" width="60" height="40" as="geometry" />
        </mxCell>
        <mxCell id="3DmKK-dXnjQOcCmPa_60-14" style="edgeStyle=orthogonalEdgeStyle;rounded=0;orthogonalLoop=1;jettySize=auto;html=1;entryX=0;entryY=0.5;entryDx=0;entryDy=0;" parent="1" source="3DmKK-dXnjQOcCmPa_60-8" target="3DmKK-dXnjQOcCmPa_60-9" edge="1">
          <mxGeometry relative="1" as="geometry" />
        </mxCell>
        <mxCell id="3DmKK-dXnjQOcCmPa_60-20" value="Y" style="edgeLabel;html=1;align=center;verticalAlign=middle;resizable=0;points=[];" parent="3DmKK-dXnjQOcCmPa_60-14" vertex="1" connectable="0">
          <mxGeometry x="-0.2222" relative="1" as="geometry">
            <mxPoint as="offset" />
          </mxGeometry>
        </mxCell>
        <mxCell id="3DmKK-dXnjQOcCmPa_60-18" value="N" style="edgeStyle=orthogonalEdgeStyle;rounded=0;orthogonalLoop=1;jettySize=auto;html=1;entryX=0;entryY=0.5;entryDx=0;entryDy=0;exitX=0;exitY=0.5;exitDx=0;exitDy=0;exitPerimeter=0;" parent="1" source="3DmKK-dXnjQOcCmPa_60-8" target="3DmKK-dXnjQOcCmPa_60-7" edge="1">
          <mxGeometry relative="1" as="geometry" />
        </mxCell>
        <mxCell id="3DmKK-dXnjQOcCmPa_60-8" value="是否为企业&lt;br&gt;管理员？" style="strokeWidth=2;html=1;shape=mxgraph.flowchart.decision;whiteSpace=wrap;shadow=0;" parent="1" vertex="1">
          <mxGeometry x="225" y="280" width="100" height="60" as="geometry" />
        </mxCell>
        <mxCell id="3DmKK-dXnjQOcCmPa_60-15" style="edgeStyle=orthogonalEdgeStyle;rounded=0;orthogonalLoop=1;jettySize=auto;html=1;entryX=0.5;entryY=0;entryDx=0;entryDy=0;" parent="1" source="3DmKK-dXnjQOcCmPa_60-9" target="3DmKK-dXnjQOcCmPa_60-10" edge="1">
          <mxGeometry relative="1" as="geometry" />
        </mxCell>
        <mxCell id="3DmKK-dXnjQOcCmPa_60-9" value="用户权限控制页面" style="rounded=1;whiteSpace=wrap;html=1;absoluteArcSize=1;arcSize=14;strokeWidth=2;shadow=0;" parent="1" vertex="1">
          <mxGeometry x="380" y="290" width="100" height="40" as="geometry" />
        </mxCell>
        <mxCell id="3DmKK-dXnjQOcCmPa_60-16" style="edgeStyle=orthogonalEdgeStyle;rounded=0;orthogonalLoop=1;jettySize=auto;html=1;" parent="1" source="3DmKK-dXnjQOcCmPa_60-10" target="3DmKK-dXnjQOcCmPa_60-11" edge="1">
          <mxGeometry relative="1" as="geometry" />
        </mxCell>
        <mxCell id="3DmKK-dXnjQOcCmPa_60-10" value="新增页面" style="rounded=1;whiteSpace=wrap;html=1;absoluteArcSize=1;arcSize=14;strokeWidth=2;shadow=0;" parent="1" vertex="1">
          <mxGeometry x="392.5" y="350" width="75" height="40" as="geometry" />
        </mxCell>
        <mxCell id="3DmKK-dXnjQOcCmPa_60-22" style="edgeStyle=orthogonalEdgeStyle;rounded=0;orthogonalLoop=1;jettySize=auto;html=1;exitX=0.5;exitY=1;exitDx=0;exitDy=0;entryX=0.5;entryY=0;entryDx=0;entryDy=0;" parent="1" source="3DmKK-dXnjQOcCmPa_60-11" target="3DmKK-dXnjQOcCmPa_60-21" edge="1">
          <mxGeometry relative="1" as="geometry" />
        </mxCell>
        <mxCell id="3DmKK-dXnjQOcCmPa_60-11" value="输入新用户信息" style="rounded=1;whiteSpace=wrap;html=1;absoluteArcSize=1;arcSize=14;strokeWidth=2;shadow=0;" parent="1" vertex="1">
          <mxGeometry x="383.75" y="410" width="92.5" height="40" as="geometry" />
        </mxCell>
        <mxCell id="oGZmK1XcolRLVndk6UgQ-1" style="edgeStyle=orthogonalEdgeStyle;rounded=0;orthogonalLoop=1;jettySize=auto;html=1;entryX=1;entryY=0.5;entryDx=0;entryDy=0;" edge="1" parent="1" source="3DmKK-dXnjQOcCmPa_60-21" target="3DmKK-dXnjQOcCmPa_60-9">
          <mxGeometry relative="1" as="geometry">
            <Array as="points">
              <mxPoint x="500" y="490" />
              <mxPoint x="500" y="310" />
            </Array>
          </mxGeometry>
        </mxCell>
        <mxCell id="3DmKK-dXnjQOcCmPa_60-21" value="新增完成" style="rounded=1;whiteSpace=wrap;html=1;absoluteArcSize=1;arcSize=14;strokeWidth=2;shadow=0;" parent="1" vertex="1">
          <mxGeometry x="383.75" y="470" width="92.5" height="40" as="geometry" />
        </mxCell>
      </root>
    </mxGraphModel>
  </diagram>
</mxfile>
